<svg xmlns="http://www.w3.org/2000/svg" version="1.1" xmlns:xlink="http://www.w3.org/1999/xlink" xmlns:svgjs="http://svgjs.com/svgjs" width="512" height="512" x="0" y="0" viewBox="0 0 512 512" style="enable-background:new 0 0 512 512" xml:space="preserve" class=""><rect width="512" height="512" rx="20" ry="20" fill="#F5F5F5" shape="rounded" transform="matrix(1,0,0,1,0,0)"></rect><g transform="matrix(0.7,0,0,0.7,76.80014877319337,76.79997711181642)"><path d="M395.051 340.428c34.549-35.192 55.895-83.388 55.895-136.484C450.945 96.452 363.493 9 256 9S61.055 96.452 61.055 203.945c0 53.095 21.346 101.291 55.895 136.484l-52.093 90.227a7 7 0 0 0 7.447 10.361l70.109-14.152 22.801 67.793a7 7 0 0 0 12.697 1.269l56.704-98.216c7.025.77 14.158 1.178 21.385 1.178s14.359-.408 21.384-1.178L336.151 499.5a7 7 0 0 0 12.697-1.269l22.8-67.793 70.11 14.151a7 7 0 0 0 7.447-10.361zM173.54 475.498l-19.825-58.947a7.004 7.004 0 0 0-8.02-4.63l-60.96 12.305 42.667-73.9c25.702 22.607 57.38 38.564 92.328 45.167zM75.055 203.945C75.055 104.171 156.227 23 256 23s180.945 81.171 180.945 180.945S355.773 384.89 256 384.89 75.055 303.718 75.055 203.945zm293.311 211.549a7.002 7.002 0 0 0-8.02 4.63l-19.824 58.946-48.254-83.578c34.948-6.603 66.628-22.56 92.33-45.167l44.73 77.473zM256 59.139c-79.846 0-144.806 64.959-144.806 144.806S176.154 348.75 256 348.75s144.806-64.959 144.806-144.806S335.846 59.139 256 59.139zm0 275.611c-72.127 0-130.806-58.679-130.806-130.806S183.873 73.139 256 73.139s130.806 58.679 130.806 130.806S328.127 334.75 256 334.75zm94.157-152.613a7.002 7.002 0 0 0-6.23-4.824l-59.553-3.637-21.86-55.514a7.002 7.002 0 0 0-13.028 0l-21.86 55.514-59.553 3.637a7 7 0 0 0-4.025 12.389l46.041 37.946-14.943 57.761a7 7 0 0 0 10.538 7.657L256 261.003l50.316 32.062a6.992 6.992 0 0 0 7.876-.24 6.998 6.998 0 0 0 2.662-7.417l-14.943-57.761 46.041-37.946a6.996 6.996 0 0 0 2.205-7.564zm-60.593 37.544a7 7 0 0 0-2.325 7.155l11.609 44.871-39.086-24.907a6.993 6.993 0 0 0-7.524 0l-39.087 24.907 11.609-44.871a7.002 7.002 0 0 0-2.325-7.155l-35.767-29.478 46.263-2.825a7 7 0 0 0 6.087-4.422L256 139.832l16.981 43.125a7 7 0 0 0 6.087 4.422l46.263 2.825z" fill="#CB0C9F" data-original="#000000" class=""></path></g></svg>