<svg xmlns="http://www.w3.org/2000/svg" xmlns:xlink="http://www.w3.org/1999/xlink" width="130" height="135" viewBox="0 0 130 135"><defs><clipPath id="a"><rect width="130" height="135" transform="translate(901 434)" fill="#fff" stroke="#707070" stroke-width="1"/></clipPath></defs><g transform="translate(-901 -434)" clip-path="url(#a)"><rect width="130" height="135" rx="25" transform="translate(901 434)" fill="#f5f5f5"/><g transform="translate(934 470)"><path d="M55.3,62H41.7A6.7,6.7,0,0,1,35,55.3V37a2.006,2.006,0,0,1,2-2H55.3A6.7,6.7,0,0,1,62,41.7V55.3A6.7,6.7,0,0,1,55.3,62ZM39,39V55.3A2.689,2.689,0,0,0,41.7,58H55.3A2.689,2.689,0,0,0,58,55.3V41.7A2.689,2.689,0,0,0,55.3,39ZM22.3,62H8.7A6.7,6.7,0,0,1,2,55.3V41.7A6.7,6.7,0,0,1,8.7,35H27a2.006,2.006,0,0,1,2,2V55.3A6.7,6.7,0,0,1,22.3,62ZM8.7,39A2.689,2.689,0,0,0,6,41.7V55.3A2.689,2.689,0,0,0,8.7,58H22.3A2.689,2.689,0,0,0,25,55.3V39ZM55.3,29H37a2.006,2.006,0,0,1-2-2V8.7A6.7,6.7,0,0,1,41.7,2H55.3A6.7,6.7,0,0,1,62,8.7V22.3A6.7,6.7,0,0,1,55.3,29ZM39,25H55.3A2.689,2.689,0,0,0,58,22.3V8.7A2.689,2.689,0,0,0,55.3,6H41.7A2.689,2.689,0,0,0,39,8.7ZM27,29H8.7A6.7,6.7,0,0,1,2,22.3V8.7A6.7,6.7,0,0,1,8.7,2H22.3A6.7,6.7,0,0,1,29,8.7V27A2.006,2.006,0,0,1,27,29ZM8.7,6A2.689,2.689,0,0,0,6,8.7V22.3A2.689,2.689,0,0,0,8.7,25H25V8.7A2.689,2.689,0,0,0,22.3,6Z" fill="#cb0c9f"/></g></g></svg>